<svg xmlns="http://www.w3.org/2000/svg" width="390" height="844" viewBox="0 0 390 844"><rect width="100%" height="100%" fill="#DDDDDD"/><path fill="#999999" d="m82.795 414.275-3.38-.6q.39-2.7 1.51-4.74t2.8-3.41q1.67-1.36 3.84-2.05t4.67-.69q2.6 0 4.69.74 2.1.74 3.58 2.05 1.48 1.32 2.27 3.08.8 1.77.8 3.83 0 1.79-.41 3.15-.4 1.37-1.15 2.38-.76 1.02-1.88 1.72-1.11.7-2.52 1.17 3.38 1.07 5.05 3.25 1.66 2.18 1.66 5.49 0 2.8-1.04 4.96t-2.81 3.63-4.09 2.22q-2.33.76-4.93.76-2.83 0-4.94-.65t-3.67-1.93q-1.56-1.27-2.65-3.12-1.09-1.84-1.87-4.26l2.83-1.17q1.12-.47 2.1-.25.97.22 1.41 1.05.47.91 1.03 1.8.56.88 1.34 1.57t1.83 1.12q1.06.43 2.51.43 1.64 0 2.86-.54 1.22-.53 2.04-1.39.82-.85 1.23-1.91.4-1.05.4-2.12 0-1.35-.29-2.45-.28-1.11-1.19-1.89t-2.62-1.22q-1.7-.44-4.56-.44v-4.58q2.37-.02 3.93-.44t2.48-1.16 1.29-1.78q.36-1.04.36-2.29 0-2.65-1.48-4.03-1.48-1.37-3.95-1.37-1.15 0-2.11.32-.96.33-1.73.91-.77.59-1.29 1.37t-.78 1.71q-.44 1.2-1.15 1.59-.72.39-2.02.18m32.55.21q0 3.14 1.63 4.79 1.62 1.66 4.61 1.66 1.56 0 2.79-.5 1.22-.49 2.05-1.35t1.26-2.03.43-2.52q0-1.53-.47-2.74t-1.32-2.04q-.86-.84-2.05-1.28-1.18-.44-2.58-.44-1.46 0-2.63.48t-2 1.34-1.27 2.04q-.45 1.18-.45 2.59m-3.14 26.31 11.67-14.59q.44-.54.83-1.06t.76-1.04q-1.3.83-2.86 1.26t-3.28.43q-1.95 0-3.82-.68-1.87-.67-3.33-2.04-1.45-1.36-2.35-3.38-.9-2.01-.9-4.72 0-2.52.94-4.73.93-2.21 2.62-3.87 1.69-1.67 4.06-2.63t5.23-.96q2.88 0 5.18.91t3.93 2.55q1.62 1.63 2.5 3.92.87 2.29.87 5.02 0 1.74-.3 3.3t-.85 3q-.54 1.45-1.32 2.83-.78 1.37-1.75 2.73l-8.6 12.27q-.44.62-1.33 1.05-.88.43-2 .43zm53.58-18.8q0 4.92-1.05 8.54-1.05 3.63-2.91 6-1.86 2.36-4.4 3.52-2.53 1.16-5.47 1.16t-5.44-1.16q-2.51-1.16-4.36-3.52-1.85-2.37-2.89-6-1.04-3.62-1.04-8.54 0-4.94 1.04-8.55 1.04-3.62 2.89-5.98 1.85-2.37 4.36-3.53 2.5-1.15 5.44-1.15t5.47 1.15q2.54 1.16 4.4 3.53 1.86 2.36 2.91 5.98 1.05 3.61 1.05 8.55m-6.63 0q0-4.08-.59-6.76-.6-2.68-1.6-4.26-1-1.59-2.3-2.23-1.3-.63-2.71-.63-1.38 0-2.66.63-1.29.64-2.28 2.23-.99 1.58-1.57 4.26-.59 2.68-.59 6.76t.59 6.76q.58 2.68 1.57 4.27.99 1.58 2.28 2.22 1.28.64 2.66.64 1.41 0 2.71-.64t2.3-2.22q1-1.59 1.6-4.27.59-2.68.59-6.76m47.92 10.19-3.4 3.36-8.82-8.82-8.89 8.87-3.41-3.35 8.9-8.92-8.48-8.48 3.38-3.38 8.48 8.48 8.42-8.43 3.43 3.38-8.45 8.45zm30.53 4.01q1.58 0 2.78-.46 1.19-.45 2.01-1.26.82-.8 1.24-1.92.41-1.12.41-2.42 0-3.09-1.71-4.68-1.72-1.59-4.73-1.59-3.02 0-4.74 1.59-1.71 1.59-1.71 4.68 0 1.3.41 2.42.42 1.12 1.24 1.92.82.81 2.01 1.26 1.2.46 2.79.46m0-28.58q-1.43 0-2.47.45-1.04.44-1.73 1.18t-1.02 1.7q-.32.96-.32 2.03 0 1.12.27 2.17t.92 1.87 1.72 1.32q1.07.49 2.63.49t2.62-.49q1.07-.5 1.72-1.32t.92-1.87.27-2.17q0-1.07-.33-2.03-.34-.96-1.02-1.7-.67-.74-1.71-1.18-1.04-.45-2.47-.45m6.34 13.58q3.43 1.11 5.07 3.41 1.64 2.31 1.64 5.63 0 2.5-.95 4.53t-2.67 3.46q-1.71 1.43-4.12 2.21-2.4.78-5.31.78-2.92 0-5.32-.78-2.41-.78-4.12-2.21-1.72-1.43-2.67-3.46t-.95-4.53q0-3.32 1.64-5.63 1.64-2.3 5.07-3.41-2.73-1.15-4.09-3.25-1.37-2.11-1.37-5.07 0-2.14.87-3.98.87-1.85 2.43-3.21 1.56-1.37 3.74-2.14 2.17-.76 4.77-.76t4.77.76q2.17.77 3.73 2.14 1.56 1.36 2.43 3.21.87 1.84.87 3.98 0 2.96-1.36 5.07-1.37 2.1-4.1 3.25m15.81 5.43h11.44v-12.3q0-1.74.23-3.85zm17.03 0h4.73v3.72q0 .52-.34.89-.34.38-.96.38h-3.43v9.18h-5.59v-9.18h-15.86q-.65 0-1.15-.4-.49-.4-.62-1l-.68-3.25 17.81-23.79h6.09zm13.13 0h11.44v-12.3q0-1.74.23-3.85zm17.03 0h4.73v3.72q0 .52-.34.89-.34.38-.96.38h-3.43v9.18h-5.59v-9.18h-15.86q-.65 0-1.15-.4-.49-.4-.62-1l-.68-3.25 17.81-23.79h6.09z"/></svg>